# xmcd
#
# Track frame offsets:
#	150
#	14946
#	35577
#	51580
#	67946
#	87133
#	104960
#	121130
#	137574
#	150552
#	171816
#	192714
#
# Disc length: 2774 seconds
#
# Revision: 1
# Processed by: cddbd v1.4PL0 Copyright (c) Steve Scherf et al.
# Submitted via: audiograbber 1.81.01
#
DISCID=af0ad40c
DTITLE=Michael Heaton - Our Little Secret
DYEAR=2003
DGENRE=alt.country
TTITLE0=The Good Times
TTITLE1=If It's So Easy
TTITLE2=Our Little Secret
TTITLE3=Ring Ring Ring
TTITLE4=Over The Hill
TTITLE5=Say It In Spanish
TTITLE6=Wildflower
TTITLE7=Souvenirs
TTITLE8=In The Middle (Y'amo dei la di Y'amo dei la da)
TTITLE9=Now Or Never
TTITLE10=Here It Comes
TTITLE11=Blue Eyes
EXTD=
EXTT0=
EXTT1=
EXTT2=
EXTT3=
EXTT4=
EXTT5=
EXTT6=
EXTT7=
EXTT8=
EXTT9=
EXTT10=
EXTT11=
PLAYORDER=
